<?xml version="1.0" encoding="utf-8"?>
<!-- Generator: Adobe Illustrator 24.0.0, SVG Export Plug-In . SVG Version: 6.00 Build 0)  -->
<svg version="1.1" id="Layer_1" xmlns="http://www.w3.org/2000/svg" xmlns:xlink="http://www.w3.org/1999/xlink" x="0px" y="0px"
	 viewBox="0 0 420 350" style="enable-background:new 0 0 420 350;" xml:space="preserve">
<style type="text/css">
	.st0{fill:#436363;}
	.st1{fill:#53924F;}
</style>
<g id="XMLID_279_">
	<g id="XMLID_438_">
		<path id="XMLID_467_" class="st0" d="M38.3,312.4v-18.6h2v18.6H38.3z"/>
		<path id="XMLID_465_" class="st0" d="M62.5,312.4h-2v-18.6h2.3c4.1,5.4,8.2,10.7,12.4,16.1v-16.1h2v18.6h-2.4
			c-4.1-5.3-8.2-10.7-12.3-16V312.4z"/>
		<path id="XMLID_463_" class="st0" d="M98.6,312.4h-1.9c0.5-6.2,1.1-12.4,1.6-18.6h1.9c2.2,5.5,4.5,11,6.7,16.5
			c2.2-5.5,4.4-11,6.6-16.5h2c0.5,6.2,1.2,12.4,1.7,18.6h-2c-0.4-5-0.8-10-1.2-15c-2,5-4,10-6,15h-2.1c-2-4.9-3.9-9.8-5.9-14.7
			l-0.1-0.3C99.5,302.4,99,307.4,98.6,312.4z"/>
		<path id="XMLID_460_" class="st0" d="M144.3,293.6c5.6,0,8.7,3.7,8.7,9.4c0,5.7-3.1,9.5-8.8,9.5c-5.6,0-8.7-3.7-8.7-9.4
			C135.6,297.4,138.7,293.6,144.3,293.6z M144.4,310.8c4.4,0,6.6-3.3,6.6-7.8c0-4.6-2.3-7.8-6.8-7.8s-6.6,3.3-6.6,7.8
			C137.6,307.7,139.8,310.8,144.4,310.8z"/>
		<path id="XMLID_456_" class="st0" d="M172.1,293.7h6.3c3.2,0,5.3,1.5,5.3,4.6c0,1.7-1,2.8-2.3,3.5c2.1,0.8,3.6,2.4,3.6,5.1
			c0,3.7-2.6,5.5-6.6,5.5h-6.3V293.7z M174.2,295.3v5.8h3.6c2.1,0,3.8-0.8,3.8-2.8c0-2-1.3-3-3.3-3H174.2z M174.2,302.6v8.2h4.1
			c2.8,0,4.6-1.3,4.6-3.9c0-2.9-2.1-4.2-5.1-4.2H174.2z"/>
		<path id="XMLID_454_" class="st0" d="M203.9,312.4v-18.6h2v18.6H203.9z"/>
		<path id="XMLID_452_" class="st0" d="M226.2,293.7h2v17.1h10.3v1.6h-12.3V293.7z"/>
		<path id="XMLID_450_" class="st0" d="M256.4,312.4v-18.6h2v18.6H256.4z"/>
		<path id="XMLID_447_" class="st0" d="M289.3,306.8h-8.7c-0.8,1.9-1.6,3.7-2.4,5.6h-2.2c2.7-6.2,5.5-12.4,8.3-18.6h1.9
			c2.4,6.2,4.9,12.4,7.4,18.6h-2.1C290.8,310.5,290.1,308.7,289.3,306.8z M285.2,295.9c-1.3,3.1-2.6,6.1-3.9,9.2h7.4
			C287.6,302.1,286.4,299,285.2,295.9z"/>
		<path id="XMLID_444_" class="st0" d="M313.7,312.4h-2v-18.6h5.9c3.8,0,6.3,1.5,6.3,5c0,2.9-1.6,4.5-4.1,5.1
			c1.6,2.3,4.9,6.7,6.1,8.5h-2.3c-1.2-1.9-4.3-5.9-5.9-8.3h-3.9V312.4z M313.7,295.3v7.2h3.8c2.7,0,4.4-1.1,4.4-3.6
			c0-2.6-1.9-3.6-4.7-3.6H313.7z"/>
		<path id="XMLID_442_" class="st0" d="M343.6,312.4v-18.6h2v18.6H343.6z"/>
		<path id="XMLID_439_" class="st0" d="M373.5,293.6c5.6,0,8.7,3.7,8.7,9.4c0,5.7-3.1,9.5-8.8,9.5c-5.6,0-8.7-3.7-8.7-9.4
			C364.7,297.4,367.8,293.6,373.5,293.6z M373.5,310.8c4.4,0,6.6-3.3,6.6-7.8c0-4.6-2.3-7.8-6.8-7.8c-4.5,0-6.6,3.3-6.6,7.8
			C366.7,307.7,369,310.8,373.5,310.8z"/>
	</g>
	<g id="XMLID_431_">
		<path id="XMLID_437_" class="st0" d="M113.7,190.8h-13.5c-0.9,0-1.6,0.7-1.6,1.6v49.5l-46.5-48.6c-1.2-1.2-2.7-2-4.3-2.4
			c-1.7-0.3-3.3-0.2-4.9,0.5c-1.5,0.7-2.7,1.7-3.6,3.1c-1,1.4-1.5,3-1.5,4.7v69.8c0,0.9,0.7,1.6,1.6,1.6h13.5c0.9,0,1.6-0.7,1.6-1.6
			v-49.5l46.5,48.6c0.8,0.9,1.8,1.5,2.9,1.9c1,0.4,2.1,0.6,3.1,0.6c1.1,0,2.2-0.2,3.3-0.6c1-0.4,1.9-1,2.7-1.8
			c0.7-0.8,1.4-1.6,1.8-2.7c0.5-1,0.7-2.2,0.7-3.4v-69.8C115.4,191.5,114.6,190.8,113.7,190.8z"/>
		<path id="XMLID_436_" class="st0" d="M199.4,190.8h-62.4c-1.2,0-2.4,0.2-3.4,0.7c-1.1,0.4-2,1.1-2.8,1.9c-0.8,0.8-1.4,1.7-1.8,2.8
			c-0.4,1.1-0.7,2.2-0.7,3.4v50c0,3.8,0.7,7.2,2.1,9.9c1.4,2.7,3.2,4.9,5.3,6.6c2.1,1.7,4.4,2.9,6.9,3.6c2.4,0.7,4.7,1.1,6.8,1.1h50
			c0.9,0,1.7-0.7,1.7-1.7V255c0-0.9-0.7-1.7-1.7-1.7h-49.9c-1.4,0-2.4-0.3-3-1c-0.6-0.6-1-1.6-1-3v-10.1h40.3c0.9,0,1.7-0.7,1.7-1.7
			v-14c0-0.9-0.7-1.7-1.7-1.7h-40.3V208h53.9c0.9,0,1.7-0.7,1.7-1.7v-13.9C201,191.5,200.3,190.8,199.4,190.8z"/>
		<path id="XMLID_435_" class="st0" d="M296,192c-0.4-0.8-1.1-1.3-2-1.3h-18.7c-0.6,0-1.2,0.3-1.7,0.8l-21.4,25l-21.4-25
			c-0.4-0.5-1-0.8-1.7-0.8h-18.5c-0.8,0-1.6,0.5-2,1.3c-0.4,0.8-0.2,1.7,0.3,2.3l31.1,36.4l-31,36.2c-0.6,0.6-0.7,1.6-0.3,2.3
			c0.4,0.8,1.1,1.3,2,1.3h18.6c0.6,0,1.2-0.3,1.7-0.8l21.2-24.8l21.3,24.8c0.4,0.5,1,0.8,1.6,0.8h18.6c0.8,0,1.6-0.5,2-1.3
			c0.4-0.8,0.2-1.7-0.3-2.3l-31-36.2l31.3-36.4C296.2,193.7,296.3,192.8,296,192z"/>
		<path id="XMLID_432_" class="st0" d="M379.8,210.5c-1.6-4-4-7.5-6.9-10.4c-2.9-2.9-6.4-5.2-10.4-6.8c-4-1.6-8.4-2.5-13-2.5h-18
			c-4.7,0-9.1,0.8-13.1,2.5c-4,1.6-7.5,3.9-10.4,6.8c-2.9,2.9-5.2,6.4-6.9,10.4c-1.7,4-2.5,8.4-2.5,13.1v14c0,4.7,0.8,9.2,2.5,13.2
			c1.7,4,4,7.5,6.9,10.4c2.9,2.9,6.4,5.2,10.4,6.8c4,1.6,8.4,2.4,13,2.4h18c4.7,0,9-0.8,13-2.4c4-1.6,7.5-3.9,10.4-6.8
			c2.9-2.9,5.2-6.4,6.9-10.4c1.6-4,2.5-8.4,2.5-13.2v-14C382.3,218.9,381.5,214.5,379.8,210.5z M364.7,223.6v14
			c0,2.4-0.4,4.5-1.1,6.4c-0.7,1.9-1.8,3.4-3.1,4.8c-1.3,1.3-2.9,2.3-4.8,3.1c-1.9,0.7-4,1.1-6.3,1.1h-17.9c-2.3,0-4.5-0.4-6.3-1.1
			c-1.9-0.7-3.5-1.8-4.8-3.1c-1.3-1.3-2.4-2.9-3.1-4.8c-0.7-1.9-1.1-4-1.1-6.4v-14c0-2.4,0.4-4.5,1.1-6.4c0.7-1.9,1.8-3.4,3.1-4.8
			c1.3-1.3,2.9-2.3,4.8-3.1c1.9-0.7,4-1.1,6.3-1.1h18c2.3,0,4.4,0.4,6.3,1.1c1.9,0.7,3.5,1.8,4.8,3.1c1.3,1.3,2.3,2.9,3.1,4.8
			C364.4,219.1,364.7,221.3,364.7,223.6z"/>
	</g>
	<g id="XMLID_426_">
		<path id="XMLID_430_" class="st1" d="M178.9,108.8c0.8-1,1.4-2.2,1.9-3.4h53.8c-0.4,1.2-1,2.4-1.8,3.4L193,157.5
			c-3.4,4.2-11.7,7.6-18.5,7.6h-29.2c-6.8,0-9.5-3.4-6.2-7.6L178.9,108.8z"/>
		<path id="XMLID_429_" class="st0" d="M180.4,96.3c-0.4-0.9-0.9-1.8-1.5-2.6l-39.7-48.7c-3.4-4.2-0.6-7.6,6.2-7.6h29.2
			c6.8,0,15.1,3.4,18.5,7.6l39.7,48.7c0.6,0.8,1.1,1.6,1.5,2.6H180.4z"/>
		<path id="XMLID_428_" class="st0" d="M246.7,98.4c-0.4-2.5-1.4-5-3.1-7L220.5,63l14.6-18c3.4-4.2,11.7-7.6,18.5-7.6h29.2
			c6.8,0,9.5,3.4,6.2,7.6l-39.7,48.7c-1.2,1.4-1.9,3.2-2.3,5.1C246.9,98.7,246.8,98.5,246.7,98.4z"/>
		<path id="XMLID_427_" class="st1" d="M246.7,104.1c0.1-0.1,0.1-0.2,0.2-0.4c0.4,1.9,1.1,3.6,2.3,5.1l39.7,48.7
			c3.4,4.2,0.6,7.6-6.2,7.6h-29.2c-6.8,0-15.1-3.4-18.5-7.6l-14.6-18l23.2-28.4C245.3,109.1,246.3,106.7,246.7,104.1z"/>
	</g>
</g>
</svg>
